<svg xmlns="http://www.w3.org/2000/svg" height="24px" viewBox="0 0 30 32" width="24px" fill="#000000">
  <path d="M29.282 7.976l-.009-.035c-.721-2.917-3.974-6.046-6.96-6.697l-.034-.007a38.682 38.682 0 0 0-14.56 0l-.035.007C4.7 1.894 1.446 5.024.724 7.94l-.008.035a28.499 28.499 0 0 0 0 12.277l.008.035c.691 2.792 3.702 5.778 6.577 6.6v3.255c0 1.178 1.436 1.757 2.253.906l3.298-3.428c.716.04 1.431.062 2.147.062 2.432 0 4.865-.23 7.28-.69l.033-.008c2.987-.65 6.24-3.78 6.961-6.697l.009-.035a28.502 28.502 0 0 0 0-12.277zm-2.61 11.686c-.482 1.903-2.951 4.268-4.914 4.705a36.056 36.056 0 0 1-7.744.626.183.183 0 0 0-.137.056L11.47 27.52 8.907 30.15a.3.3 0 0 1-.516-.207V24.55a.186.186 0 0 0-.151-.182h-.002c-1.962-.438-4.43-2.803-4.913-4.706a25.86 25.86 0 0 1 0-11.095c.483-1.903 2.951-4.268 4.913-4.705a36.026 36.026 0 0 1 13.52 0c1.963.437 4.432 2.802 4.914 4.705a25.831 25.831 0 0 1 0 11.095z"></path>
  <path d="M19.268 22.152c-.302-.092-.59-.153-.856-.264-2.767-1.148-5.313-2.629-7.33-4.898-1.146-1.291-2.044-2.748-2.803-4.29-.36-.732-.663-1.492-.972-2.247-.282-.688.133-1.4.57-1.919.41-.487.938-.86 1.51-1.134.446-.214.886-.09 1.212.288.704.817 1.351 1.677 1.875 2.624.322.583.234 1.296-.35 1.692-.142.097-.271.21-.403.319a1.324 1.324 0 0 0-.305.321.88.88 0 0 0-.059.772c.72 1.979 1.934 3.518 3.926 4.347.319.132.639.287 1.006.244.615-.072.814-.747 1.245-1.099.42-.344.96-.349 1.413-.062.454.288.893.596 1.33.907.43.306.857.605 1.253.954.38.335.512.775.297 1.23-.392.833-.963 1.526-1.787 1.969-.232.125-.51.165-.772.246-.302-.092.262-.081 0 0zM15.008 6.447c3.618.102 6.59 2.503 7.227 6.08.109.61.147 1.233.196 1.852.02.26-.127.508-.408.511-.29.003-.42-.24-.44-.5-.037-.514-.063-1.032-.134-1.542-.374-2.696-2.524-4.926-5.207-5.404-.404-.072-.817-.091-1.226-.134-.258-.027-.597-.043-.654-.364-.048-.27.18-.484.436-.498.07-.004.14-.001.21 0 3.618.1-.07-.001 0 0z"></path>
  <path d="M20.506 13.576c-.006.045-.009.152-.035.252-.096.363-.647.408-.774.042a1.089 1.089 0 0 1-.043-.35c-.002-.766-.168-1.532-.555-2.199a4.093 4.093 0 0 0-1.716-1.61 4.933 4.933 0 0 0-1.368-.42c-.206-.034-.414-.054-.622-.083-.25-.035-.385-.195-.373-.443.011-.231.18-.398.434-.384.83.047 1.632.227 2.37.618 1.502.795 2.36 2.05 2.61 3.725.011.076.03.152.035.228.014.188.023.376.037.624-.006.045-.014-.248 0 0z"></path>
  <path d="M18.253 13.489c-.303.005-.465-.163-.496-.44-.022-.194-.04-.39-.085-.578-.091-.371-.288-.715-.6-.942a1.57 1.57 0 0 0-.49-.236c-.221-.064-.452-.046-.673-.1-.241-.06-.374-.255-.336-.48a.434.434 0 0 1 .459-.35c1.402.102 2.405.827 2.548 2.479.01.116.022.24-.004.351-.044.19-.185.286-.323.296-.303.005.138-.01 0 0z"></path>
</svg>