<svg xmlns="http://www.w3.org/2000/svg" height="24px" viewBox="0 0 37 20" width="24px">
  <path fill-rule="evenodd" clip-rule="evenodd" d="M36.67 17.85a15.661 15.661 0 0 0-3.68-4.025c-3.1-2.715-2.683-2.272 1.053-6.972 2.28-2.872 3.182-4.612 2.904-5.366-.278-.71-1.943-.52-1.943-.52L29.44.987a1.405 1.405 0 0 0-.718.122 1.58 1.58 0 0 0-.497.566 29.986 29.986 0 0 1-2.048 4.101c-2.487 3.98-3.47 4.19-3.875 3.947-.948-.577-.706-2.317-.706-3.548 0-3.857.614-5.465-1.214-5.875A9.837 9.837 0 0 0 17.79.046a12.714 12.714 0 0 0-4.616.455c-.636.288-1.122.942-.833.986a2.54 2.54 0 0 1 1.643.776c.39.734.58 1.55.555 2.372 0 0 .324 4.546-.763 5.111-.752.388-1.782-.41-3.991-4.013a33.025 33.025 0 0 1-1.99-3.89 1.572 1.572 0 0 0-.463-.588 2.345 2.345 0 0 0-.856-.322L1.191.966a1.785 1.785 0 0 0-1.076.344 1.011 1.011 0 0 0-.023.887s4.141 9.157 8.826 13.768a12.8 12.8 0 0 0 4.17 2.88 13.272 13.272 0 0 0 5.015 1.078h2.21c.37-.044.72-.19 1.006-.421a1.48 1.48 0 0 0 .3-.92s-.046-2.805 1.343-3.215c1.353-.41 3.1 2.716 4.95 3.913.696.524 1.571.777 2.453.71l4.951-.067s2.58-.155 1.353-2.073z"></path>
</svg>